<?xml version="1.0" encoding="iso-8859-1"?>
<!-- Uploaded to: SVG Repo, www.svgrepo.com, Generator: SVG Repo Mixer Tools -->
<svg height="800px" width="800px" version="1.1" id="Layer_1" xmlns="http://www.w3.org/2000/svg" xmlns:xlink="http://www.w3.org/1999/xlink" 
	 viewBox="0 0 512 512" xml:space="preserve">
<g>
	<g>
		<g>
			<path style="fill:#010101;" d="M492.17,468.535V279.856c10.97-1.102,19.608-10.429,19.608-21.677
				c0-11.983-9.804-21.787-21.787-21.787h-19.608h-1.089H285.191v-20.583c6.826,3.61,15.72,3.272,22.877-2.294
				c8.715-6.536,10.894-19.609,3.268-29.413L174.077,8.715C170.808,3.268,164.272,0,157.736,0c-6.536,0-11.983,3.268-16.34,8.715
				L5.226,184.102c-7.626,8.715-6.536,21.787,3.268,29.413c4.357,3.268,8.715,4.357,13.072,4.357c2.767,0,5.814-0.847,8.715-2.391
				v252.972c-11.482,0.573-20.698,10.142-20.698,21.759C9.583,502.196,19.387,512,31.37,512h20.698h212.425h0h204.8h20.698
				c11.983,0,21.787-9.804,21.787-21.787C511.779,478.965,503.14,469.638,492.17,468.535z M447.506,279.966v188.46H285.192v-188.46
				H447.506z M158.826,352.953c-11.983,0-21.787,9.804-21.787,21.787v93.685H73.855V181.923h168.851v286.502h-62.094V374.74
				C180.613,362.758,170.809,352.953,158.826,352.953z M158.826,55.557l64.978,83.881H92.792L158.826,55.557z"/>
			<path style="fill:#010101;" d="M342.928,383.455h54.468c10.894,0,21.787-9.804,21.787-21.787s-9.804-21.787-21.787-21.787
				h-54.468c-11.983,0-21.787,9.804-21.787,21.787S330.945,383.455,342.928,383.455z"/>
		</g>
	</g>
</g>
</svg>