<svg id="visual" viewBox="0 0 900 600" width="900" height="600" xmlns="http://www.w3.org/2000/svg" xmlns:xlink="http://www.w3.org/1999/xlink" version="1.1"><path d="M0 73L82 133L164 73L245 115L327 109L409 55L491 73L573 103L655 97L736 115L818 61L900 91L900 0L818 0L736 0L655 0L573 0L491 0L409 0L327 0L245 0L164 0L82 0L0 0Z" fill="#00cc8e"></path><path d="M0 115L82 175L164 175L245 169L327 211L409 127L491 139L573 157L655 181L736 205L818 151L900 181L900 89L818 59L736 113L655 95L573 101L491 71L409 53L327 107L245 113L164 71L82 131L0 71Z" fill="#00b98a"></path><path d="M0 289L82 349L164 391L245 247L327 325L409 313L491 241L573 313L655 391L736 379L818 301L900 403L900 179L818 149L736 203L655 179L573 155L491 137L409 125L327 209L245 167L164 173L82 173L0 113Z" fill="#00a784"></path><path d="M0 481L82 529L164 541L245 469L327 523L409 451L491 523L573 445L655 487L736 493L818 517L900 523L900 401L818 299L736 377L655 389L573 311L491 239L409 311L327 323L245 245L164 389L82 347L0 287Z" fill="#00957c"></path><path d="M0 601L82 601L164 601L245 601L327 601L409 601L491 601L573 601L655 601L736 601L818 601L900 601L900 521L818 515L736 491L655 485L573 443L491 521L409 449L327 521L245 467L164 539L82 527L0 479Z" fill="#038373"></path></svg>